<svg width="17" height="17" viewBox="0 0 17 17" fill="none" xmlns="http://www.w3.org/2000/svg">
<g id="Group">
<path id="Vector" d="M14.6023 0.583313H2.398C1.39733 0.583313 0.583496 1.39715 0.583496 2.39781V14.6021C0.583496 15.6028 1.39733 16.4166 2.398 16.4166H14.6023C15.603 16.4166 16.4168 15.6028 16.4168 14.6021V2.39781C16.4168 1.39715 15.603 0.583313 14.6023 0.583313ZM15.2293 14.6021C15.2293 14.9481 14.9483 15.2291 14.6023 15.2291H2.398C2.05204 15.2291 1.771 14.9481 1.771 14.6021V4.0809C1.771 3.73494 2.05125 3.45548 2.39641 3.4539H14.6039C14.9491 3.4539 15.2293 3.73494 15.2293 4.07931V14.6037V14.6021Z" fill="#5B7083"/>
<path id="Vector_2" d="M4.5671 6.94437C5.12893 6.94437 5.58439 6.48892 5.58439 5.92708C5.58439 5.36525 5.12893 4.90979 4.5671 4.90979C4.00526 4.90979 3.5498 5.36525 3.5498 5.92708C3.5498 6.48892 4.00526 6.94437 4.5671 6.94437Z" fill="#5B7083"/>
<path id="Vector_3" d="M4.5671 10.4324C5.12893 10.4324 5.58439 9.97695 5.58439 9.41512C5.58439 8.85328 5.12893 8.39783 4.5671 8.39783C4.00526 8.39783 3.5498 8.85328 3.5498 9.41512C3.5498 9.97695 4.00526 10.4324 4.5671 10.4324Z" fill="#5B7083"/>
<path id="Vector_4" d="M12.4333 6.94437C12.9951 6.94437 13.4506 6.48892 13.4506 5.92708C13.4506 5.36525 12.9951 4.90979 12.4333 4.90979C11.8715 4.90979 11.416 5.36525 11.416 5.92708C11.416 6.48892 11.8715 6.94437 12.4333 6.94437Z" fill="#5B7083"/>
<path id="Vector_5" d="M12.4333 10.4324C12.9951 10.4324 13.4506 9.97695 13.4506 9.41512C13.4506 8.85328 12.9951 8.39783 12.4333 8.39783C11.8715 8.39783 11.416 8.85328 11.416 9.41512C11.416 9.97695 11.8715 10.4324 12.4333 10.4324Z" fill="#5B7083"/>
<path id="Vector_6" d="M8.49971 6.94437C9.06155 6.94437 9.517 6.48892 9.517 5.92708C9.517 5.36525 9.06155 4.90979 8.49971 4.90979C7.93788 4.90979 7.48242 5.36525 7.48242 5.92708C7.48242 6.48892 7.93788 6.94437 8.49971 6.94437Z" fill="#5B7083"/>
<path id="Vector_7" d="M8.49971 10.4324C9.06155 10.4324 9.517 9.97695 9.517 9.41512C9.517 8.85328 9.06155 8.39783 8.49971 8.39783C7.93788 8.39783 7.48242 8.85328 7.48242 9.41512C7.48242 9.97695 7.93788 10.4324 8.49971 10.4324Z" fill="#5B7083"/>
<path id="Vector_8" d="M4.5671 13.8604C5.12893 13.8604 5.58439 13.4049 5.58439 12.8431C5.58439 12.2813 5.12893 11.8258 4.5671 11.8258C4.00526 11.8258 3.5498 12.2813 3.5498 12.8431C3.5498 13.4049 4.00526 13.8604 4.5671 13.8604Z" fill="#5B7083"/>
<path id="Vector_9" d="M8.49971 13.8604C9.06155 13.8604 9.517 13.4049 9.517 12.8431C9.517 12.2813 9.06155 11.8258 8.49971 11.8258C7.93788 11.8258 7.48242 12.2813 7.48242 12.8431C7.48242 13.4049 7.93788 13.8604 8.49971 13.8604Z" fill="#5B7083"/>
</g>
</svg>
