<svg width="15" height="17" viewBox="0 0 15 17" fill="none" xmlns="http://www.w3.org/2000/svg">
<g id="Group">
<path id="Vector" d="M7.49999 10.3327C5.84699 10.3327 4.50195 8.98844 4.50195 7.33544C4.50195 5.68244 5.84779 4.33582 7.49999 4.33582C9.1522 4.33582 10.498 5.68165 10.498 7.33386C10.498 8.98607 9.1522 10.3303 7.49999 10.3303V10.3327ZM7.49999 5.5249C6.50249 5.5249 5.68945 6.33715 5.68945 7.33544C5.68945 8.33373 6.50249 9.1444 7.49999 9.1444C8.49749 9.1444 9.31054 8.33294 9.31054 7.33465C9.31054 6.33636 8.49749 5.52332 7.49999 5.52332V5.5249Z" fill="#5B7083"/>
<path id="Vector_2" d="M14.3815 7.4629C14.3815 3.67081 11.294 0.583313 7.50031 0.583313C3.70664 0.583313 0.619141 3.67081 0.619141 7.4629C0.619141 8.96865 1.09652 10.3984 1.99902 11.5978L2.00139 11.5962L2.00693 11.6081C3.29577 13.2468 6.97702 16.1657 7.13297 16.2884C7.24222 16.3755 7.37206 16.4174 7.5011 16.4174C7.63014 16.4174 7.75997 16.3755 7.86922 16.2892C8.02518 16.1665 11.7064 13.2492 12.9953 11.6089L13.0008 11.5978L13.0024 11.5994C13.9049 10.3992 14.3815 8.97102 14.3815 7.46448V7.4629ZM7.50031 15.0629C6.53131 14.2791 3.92197 12.1219 2.94347 10.8789C2.19931 9.88935 1.80664 8.70819 1.80664 7.46527C1.80664 4.32552 4.36135 1.77081 7.50031 1.77081C10.6393 1.77081 13.194 4.32473 13.194 7.4629C13.194 8.70581 12.8005 9.88698 12.0571 10.8774C11.0786 12.1203 8.46931 14.2768 7.50031 15.0613V15.0629Z" fill="#5B7083"/>
</g>
</svg>
